ffmpeg started on 2016-12-09 at 09:28:03
Report written to "Output/x264/results/ffmpeg/crowd_run_2160p50placebo3000k.log"
Command line:
Tools/ffmpeg/ffmpeg -benchmark -y -i Input/y4m/crowd_run_2160p50.y4m -c:v libx264 -preset placebo -b:v 3000k -an Output/x264/encoded/crowd_run_2160p50placebo3000k.mkv
ffmpeg version N-82227-gdb23fde Copyright (c) 2000-2016 the FFmpeg developers
  built with gcc 5.4.0 (Ubuntu 5.4.0-6ubuntu1~16.04.2) 20160609
  configuration: --prefix=/home/jaroslav/ffmpeg_build --pkg-config-flags=--static --extra-cflags=-I/home/jaroslav/ffmpeg_build/include --extra-ldflags=-L/home/jaroslav/ffmpeg_build/lib --bindir=/home/jaroslav/bin --enable-gpl --enable-libass --enable-libfdk-aac --enable-libfreetype --enable-libmp3lame --enable-libopus --enable-libtheora --enable-libvorbis --enable-libvpx --enable-libx264 --enable-libx265 --enable-nvenc --enable-libmfx --enable-libxvid --enable-libgsm --enable-libopencore-amrnb --enable-version3 --enable-nonfree
  libavutil      55. 35.100 / 55. 35.100
  libavcodec     57. 66.101 / 57. 66.101
  libavformat    57. 57.100 / 57. 57.100
  libavdevice    57.  2.100 / 57.  2.100
  libavfilter     6. 66.100 /  6. 66.100
  libswscale      4.  3.100 /  4.  3.100
  libswresample   2.  4.100 /  2.  4.100
  libpostproc    54.  2.100 / 54.  2.100
Input #0, yuv4mpegpipe, from 'Input/y4m/crowd_run_2160p50.y4m':
  Duration: 00:00:10.00, start: 0.000000, bitrate: 4976642 kb/s
    Stream #0:0: Video: rawvideo (I420 / 0x30323449), yuv420p(progressive), 3840x2160, SAR 1:1 DAR 16:9, 50 fps, 50 tbr, 50 tbn, 50 tbc
[libx264 @ 0x44371c0] using SAR=1/1
[libx264 @ 0x44371c0] DPB size (16 frames, 518400 mbs) > level limit (5 frames, 184320 mbs)
[libx264 @ 0x44371c0] using cpu capabilities: MMX2 SSE2Fast SSSE3 SSE4.2 AVX FMA3 AVX2 LZCNT BMI2
[libx264 @ 0x44371c0] profile High, level 5.2
[libx264 @ 0x44371c0] 264 - core 148 - H.264/MPEG-4 AVC codec - Copyleft 2003-2016 - http://www.videolan.org/x264.html - options: cabac=1 ref=16 deblock=1:0:0 analyse=0x3:0x133 me=tesa subme=11 psy=1 psy_rd=1.00:0.00 mixed_ref=1 me_range=24 chroma_me=1 trellis=2 8x8dct=1 cqm=0 deadzone=21,11 fast_pskip=0 chroma_qp_offset=-2 threads=6 lookahead_threads=1 sliced_threads=0 nr=0 decimate=1 interlaced=0 bluray_compat=0 constrained_intra=0 bframes=16 b_pyramid=2 b_adapt=2 b_bias=0 direct=3 weightb=1 open_gop=0 weightp=2 keyint=250 keyint_min=25 scenecut=40 intra_refresh=0 rc_lookahead=60 rc=abr mbtree=1 bitrate=3000 ratetol=1.0 qcomp=0.60 qpmin=0 qpmax=69 qpstep=4 ip_ratio=1.40 aq=1:1.00
Output #0, matroska, to 'Output/x264/encoded/crowd_run_2160p50placebo3000k.mkv':
  Metadata:
    encoder         : Lavf57.57.100
    Stream #0:0: Video: h264 (libx264) (H264 / 0x34363248), yuv420p, 3840x2160 [SAR 1:1 DAR 16:9], q=-1--1, 3000 kb/s, 50 fps, 1k tbn, 50 tbc
    Metadata:
      encoder         : Lavc57.66.101 libx264
    Side data:
      cpb: bitrate max/min/avg: 0/0/3000000 buffer size: 0 vbv_delay: -1
Stream mapping:
  Stream #0:0 -> #0:0 (rawvideo (native) -> h264 (libx264))
Press [q] to stop, [?] for help
frame=   19 fps=0.0 q=0.0 size=       0kB time=00:00:00.00 bitrate=N/A speed=   0x    frame=   32 fps= 31 q=0.0 size=       0kB time=00:00:00.00 bitrate=N/A speed=   0x    frame=   39 fps= 25 q=0.0 size=       0kB time=00:00:00.00 bitrate=N/A speed=   0x    frame=   46 fps= 22 q=0.0 size=       0kB time=00:00:00.00 bitrate=N/A speed=   0x    frame=   53 fps= 20 q=0.0 size=       0kB time=00:00:00.00 bitrate=N/A speed=   0x    frame=   60 fps= 19 q=0.0 size=       0kB time=00:00:00.00 bitrate=N/A speed=   0x    frame=   67 fps= 18 q=0.0 size=       0kB time=00:00:00.00 bitrate=N/A speed=   0x    frame=   74 fps= 17 q=0.0 size=       0kB time=00:00:00.00 bitrate=N/A speed=   0x    frame=   81 fps= 17 q=0.0 size=       0kB time=00:00:00.00 bitrate=N/A speed=   0x    frame=   84 fps=3.3 q=0.0 size=       0kB time=00:00:00.00 bitrate=N/A speed=   0x    frame=   89 fps=3.3 q=52.0 size=       1kB time=-00:00:00.01 bitrate=N/A speed=N/A    frame=   90 fps=2.8 q=48.0 size=       1kB time=00:00:00.00 bitrate=5888.0kbits/s speed=3.07e-05x    frame=   95 fps=2.5 q=56.0 size=       1kB time=00:00:00.10 bitrate=  58.3kbits/s speed=0.00263x    frame=  100 fps=2.3 q=60.0 size=       1kB time=00:00:00.20 bitrate=  29.3kbits/s speed=0.00457x    frame=  105 fps=2.1 q=61.0 size=       1kB time=00:00:00.30 bitrate=  19.6kbits/s speed=0.00599x    frame=  106 fps=2.1 q=61.0 size=       1kB time=00:00:00.32 bitrate=  18.3kbits/s speed=0.00628x    frame=  107 fps=2.1 q=60.0 size=       1kB time=00:00:00.34 bitrate=  17.3kbits/s speed=0.0066x    frame=  110 fps=2.0 q=61.0 size=       1kB time=00:00:00.40 bitrate=  14.7kbits/s speed=0.00726x    frame=  111 fps=1.9 q=61.0 size=       1kB time=00:00:00.42 bitrate=  14.0kbits/s speed=0.00724x    frame=  112 fps=1.9 q=60.0 size=       1kB time=00:00:00.44 bitrate=  13.4kbits/s speed=0.00746x    frame=  113 fps=1.9 q=60.0 size=       1kB time=00:00:00.46 bitrate=  12.8kbits/s speed=0.00771x    frame=  115 fps=1.7 q=60.0 size=       1kB time=00:00:00.50 bitrate=  11.8kbits/s speed=0.00756x    frame=  116 fps=1.7 q=60.0 size=       1kB time=00:00:00.52 bitrate=  11.3kbits/s speed=0.00772x    frame=  117 fps=1.7 q=60.0 size=       1kB time=00:00:00.54 bitrate=  10.9kbits/s speed=0.00791x    frame=  119 fps=1.6 q=60.0 size=       1kB time=00:00:00.58 bitrate=  10.1kbits/s speed=0.00803x    frame=  120 fps=1.6 q=60.0 size=       1kB time=00:00:00.60 bitrate=   9.8kbits/s speed=0.00815x    frame=  121 fps=1.6 q=60.0 size=       1kB time=00:00:00.62 bitrate=   9.5kbits/s speed=0.00824x    frame=  123 fps=1.5 q=60.0 size=       1kB time=00:00:00.66 bitrate=   8.9kbits/s speed=0.00802x    frame=  124 fps=1.5 q=60.0 size=       1kB time=00:00:00.68 bitrate=   8.6kbits/s speed=0.00812x    frame=  125 fps=1.5 q=60.0 size=       1kB time=00:00:00.70 bitrate=   8.4kbits/s speed=0.00825x    frame=  127 fps=1.4 q=60.0 size=       1kB time=00:00:00.74 bitrate=   7.9kbits/s speed=0.0081x    frame=  128 fps=1.4 q=60.0 size=       1kB time=00:00:00.76 bitrate=   7.7kbits/s speed=0.00824x    frame=  129 fps=1.4 q=60.0 size=       1kB time=00:00:00.78 bitrate=   7.5kbits/s speed=0.00834x    frame=  131 fps=1.4 q=60.0 size=       1kB time=00:00:00.82 bitrate=   7.2kbits/s speed=0.00872x    frame=  132 fps=1.3 q=60.0 size=       1kB time=00:00:00.84 bitrate=   7.0kbits/s speed=0.00841x    frame=  133 fps=1.3 q=60.0 size=       1kB time=00:00:00.86 bitrate=   6.8kbits/s speed=0.00847x    frame=  134 fps=1.3 q=60.0 size=       1kB time=00:00:00.88 bitrate=   6.7kbits/s speed=0.00858x    frame=  136 fps=1.3 q=60.0 size=       1kB time=00:00:00.92 bitrate=   6.4kbits/s speed=0.00891x    frame=  137 fps=1.3 q=60.0 size=       1kB time=00:00:00.94 bitrate=   6.3kbits/s speed=0.0086x    frame=  138 fps=1.2 q=60.0 size=       1kB time=00:00:00.96 bitrate=   6.1kbits/s speed=0.00867x    frame=  139 fps=1.2 q=60.0 size=       1kB time=00:00:00.98 bitrate=   6.0kbits/s speed=0.00877x    frame=  140 fps=1.2 q=60.0 size=       1kB time=00:00:01.00 bitrate=   5.9kbits/s speed=0.00886x    frame=  142 fps=1.2 q=60.0 size=       1kB time=00:00:01.04 bitrate=   5.7kbits/s speed=0.00883x    frame=  143 fps=1.2 q=60.0 size=       1kB time=00:00:01.06 bitrate=   5.5kbits/s speed=0.00881x    frame=  144 fps=1.2 q=60.0 size=       1kB time=00:00:01.08 bitrate=   5.4kbits/s speed=0.0089x    frame=  147 fps=1.2 q=60.0 size=       1kB time=00:00:01.14 bitrate=   5.2kbits/s speed=0.00897x    frame=  148 fps=1.2 q=60.0 size=       1kB time=00:00:01.16 bitrate=   5.1kbits/s speed=0.00906x    frame=  149 fps=1.2 q=60.0 size=       1kB time=00:00:01.18 bitrate=   5.0kbits/s speed=0.00917x    frame=  151 fps=1.1 q=60.0 size=       1kB time=00:00:01.22 bitrate=   4.8kbits/s speed=0.0091x    frame=  152 fps=1.1 q=60.0 size=       1kB time=00:00:01.24 bitrate=   4.7kbits/s speed=0.00915x    frame=  153 fps=1.1 q=60.0 size=       1kB time=00:00:01.26 bitrate=   4.7kbits/s speed=0.00923x    frame=  156 fps=1.1 q=59.0 size=       1kB time=00:00:01.32 bitrate=   4.5kbits/s speed=0.0093x    frame=  157 fps=1.1 q=59.0 size=       1kB time=00:00:01.34 bitrate=   4.4kbits/s speed=0.00934x    frame=  158 fps=1.1 q=59.0 size=       1kB time=00:00:01.36 bitrate=   4.3kbits/s speed=0.00942x    frame=  159 fps=1.1 q=59.0 size=       1kB time=00:00:01.38 bitrate=   4.3kbits/s speed=0.00947x    frame=  160 fps=1.1 q=59.0 size=       1kB time=00:00:01.40 bitrate=   4.2kbits/s speed=0.00931x    frame=  161 fps=1.1 q=59.0 size=       1kB time=00:00:01.42 bitrate=   4.1kbits/s speed=0.00935x    frame=  162 fps=1.1 q=59.0 size=       1kB time=00:00:01.44 bitrate=   4.1kbits/s speed=0.00942x    frame=  165 fps=1.0 q=59.0 size=       1kB time=00:00:01.50 bitrate=   3.9kbits/s speed=0.00943x    frame=  166 fps=1.0 q=59.0 size=       1kB time=00:00:01.52 bitrate=   3.9kbits/s speed=0.00944x    frame=  167 fps=1.0 q=59.0 size=       1kB time=00:00:01.54 bitrate=   3.8kbits/s speed=0.00951x    frame=  169 fps=1.0 q=59.0 size=       1kB time=00:00:01.58 bitrate=   3.7kbits/s speed=0.00951x    frame=  170 fps=1.0 q=59.0 size=       1kB time=00:00:01.60 bitrate=   3.7kbits/s speed=0.00955x    frame=  171 fps=1.0 q=59.0 size=       1kB time=00:00:01.62 bitrate=   3.6kbits/s speed=0.0096x    frame=  173 fps=1.0 q=59.0 size=       1kB time=00:00:01.66 bitrate=   3.5kbits/s speed=0.0098x    frame=  174 fps=1.0 q=59.0 size=       1kB time=00:00:01.68 bitrate=   3.5kbits/s speed=0.00958x    frame=  175 fps=1.0 q=59.0 size=       1kB time=00:00:01.70 bitrate=   3.5kbits/s speed=0.00958x    frame=  176 fps=1.0 q=59.0 size=       1kB time=00:00:01.72 bitrate=   3.4kbits/s speed=0.00963x    frame=  179 fps=1.0 q=59.0 size=       1kB time=00:00:01.78 bitrate=   3.3kbits/s speed=0.00972x    frame=  180 fps=1.0 q=59.0 size=       1kB time=00:00:01.80 bitrate=   3.3kbits/s speed=0.00975x    frame=  181 fps=1.0 q=59.0 size=       1kB time=00:00:01.82 bitrate=   3.2kbits/s speed=0.0098x    frame=  182 fps=1.0 q=59.0 size=       1kB time=00:00:01.84 bitrate=   3.2kbits/s speed=0.0098x    frame=  183 fps=0.9 q=59.0 size=       1kB time=00:00:01.86 bitrate=   3.2kbits/s speed=0.00964x    frame=  184 fps=0.9 q=59.0 size=       1kB time=00:00:01.88 bitrate=   3.1kbits/s speed=0.00968x    frame=  185 fps=0.9 q=59.0 size=       1kB time=00:00:01.90 bitrate=   3.1kbits/s speed=0.00974x    frame=  187 fps=0.9 q=59.0 size=       1kB time=00:00:01.94 bitrate=   3.0kbits/s speed=0.00976x    frame=  188 fps=0.9 q=59.0 size=       1kB time=00:00:01.96 bitrate=   3.0kbits/s speed=0.00979x    frame=  189 fps=0.9 q=59.0 size=       1kB time=00:00:01.98 bitrate=   3.0kbits/s speed=0.00984x    frame=  190 fps=0.9 q=59.0 size=       1kB time=00:00:02.00 bitrate=   2.9kbits/s speed=0.00981x    frame=  193 fps=0.9 q=58.0 size=       1kB time=00:00:02.06 bitrate=   2.9kbits/s speed=0.00974x    frame=  194 fps=0.9 q=59.0 size=       1kB time=00:00:02.08 bitrate=   2.8kbits/s speed=0.00978x    frame=  195 fps=0.9 q=59.0 size=       1kB time=00:00:02.10 bitrate=   2.8kbits/s speed=0.00984x    frame=  198 fps=0.9 q=58.0 size=       1kB time=00:00:02.16 bitrate=   2.7kbits/s speed=0.00989x    frame=  199 fps=0.9 q=58.0 size=       1kB time=00:00:02.18 bitrate=   2.7kbits/s speed=0.00982x    frame=  200 fps=0.9 q=58.0 size=       1kB time=00:00:02.20 bitrate=   2.7kbits/s speed=0.00988x    frame=  204 fps=0.9 q=58.0 size=       1kB time=00:00:02.28 bitrate=   2.6kbits/s speed=0.00991x    frame=  205 fps=0.9 q=58.0 size=       1kB time=00:00:02.30 bitrate=   2.6kbits/s speed=0.00992x    frame=  206 fps=0.9 q=58.0 size=       1kB time=00:00:02.32 bitrate=   2.5kbits/s speed=0.00995x    frame=  208 fps=0.9 q=58.0 size=       1kB time=00:00:02.36 bitrate=   2.5kbits/s speed=0.00997x    frame=  209 fps=0.9 q=58.0 size=       1kB time=00:00:02.38 bitrate=   2.5kbits/s speed=0.00999x    frame=  210 fps=0.9 q=58.0 size=       1kB time=00:00:02.40 bitrate=   2.5kbits/s speed=0.01x    frame=  211 fps=0.9 q=58.0 size=       1kB time=00:00:02.42 bitrate=   2.4kbits/s speed=0.0101x    frame=  212 fps=0.9 q=58.0 size=       1kB time=00:00:02.44 bitrate=   2.4kbits/s speed=0.0101x    frame=  213 fps=0.9 q=58.0 size=       1kB time=00:00:02.46 bitrate=   2.4kbits/s speed=0.0101x    frame=  214 fps=0.9 q=58.0 size=       1kB time=00:00:02.48 bitrate=   2.4kbits/s speed=0.00997x    frame=  215 fps=0.9 q=58.0 size=       1kB time=00:00:02.50 bitrate=   2.4kbits/s speed=0.01x    frame=  216 fps=0.9 q=58.0 size=       1kB time=00:00:02.52 bitrate=   2.3kbits/s speed=0.0101x    frame=  218 fps=0.9 q=58.0 size=       1kB time=00:00:02.56 bitrate=   2.3kbits/s speed=0.0102x    frame=  219 fps=0.9 q=58.0 size=       1kB time=00:00:02.58 bitrate=   2.3kbits/s speed=0.0101x    frame=  220 fps=0.8 q=58.0 size=       1kB time=00:00:02.60 bitrate=   2.3kbits/s speed=0.01x    frame=  221 fps=0.8 q=58.0 size=       1kB time=00:00:02.62 bitrate=   2.2kbits/s speed=0.0101x    frame=  225 fps=0.8 q=58.0 size=       1kB time=00:00:02.70 bitrate=   2.2kbits/s speed=0.0101x    frame=  226 fps=0.8 q=58.0 size=       1kB time=00:00:02.72 bitrate=   2.2kbits/s speed=0.0101x    frame=  227 fps=0.8 q=58.0 size=       1kB time=00:00:02.74 bitrate=   2.1kbits/s speed=0.0101x    frame=  229 fps=0.8 q=58.0 size=       1kB time=00:00:02.78 bitrate=   2.1kbits/s speed=0.0101x    frame=  230 fps=0.8 q=58.0 size=       1kB time=00:00:02.80 bitrate=   2.1kbits/s speed=0.0101x    frame=  231 fps=0.8 q=58.0 size=       1kB time=00:00:02.82 bitrate=   2.1kbits/s speed=0.0102x    frame=  232 fps=0.8 q=58.0 size=       1kB time=00:00:02.84 bitrate=   2.1kbits/s speed=0.0102x    frame=  233 fps=0.8 q=58.0 size=       1kB time=00:00:02.86 bitrate=   2.1kbits/s speed=0.0102x    frame=  234 fps=0.8 q=58.0 size=       1kB time=00:00:02.88 bitrate=   2.0kbits/s speed=0.0101x    frame=  235 fps=0.8 q=58.0 size=       1kB time=00:00:02.90 bitrate=   2.0kbits/s speed=0.0101x    frame=  236 fps=0.8 q=58.0 size=       1kB time=00:00:02.92 bitrate=   2.0kbits/s speed=0.0102x    frame=  238 fps=0.8 q=58.0 size=       1kB time=00:00:02.96 bitrate=   2.0kbits/s speed=0.0101x    frame=  239 fps=0.8 q=58.0 size=       1kB time=00:00:02.98 bitrate=   2.0kbits/s speed=0.0101x    frame=  240 fps=0.8 q=58.0 size=       1kB time=00:00:03.00 bitrate=   2.0kbits/s speed=0.0102x    frame=  241 fps=0.8 q=58.0 size=       1kB time=00:00:03.02 bitrate=   1.9kbits/s speed=0.0102x    frame=  244 fps=0.8 q=58.0 size=       1kB time=00:00:03.08 bitrate=   1.9kbits/s speed=0.0101x    frame=  245 fps=0.8 q=58.0 size=       1kB time=00:00:03.10 bitrate=   1.9kbits/s speed=0.0101x    frame=  246 fps=0.8 q=58.0 size=       1kB time=00:00:03.12 bitrate=   1.9kbits/s speed=0.0101x    frame=  250 fps=0.8 q=58.0 size=       1kB time=00:00:03.20 bitrate=   1.8kbits/s speed=0.0101x    frame=  251 fps=0.8 q=58.0 size=       1kB time=00:00:03.22 bitrate=   1.8kbits/s speed=0.0101x    frame=  252 fps=0.8 q=58.0 size=       1kB time=00:00:03.24 bitrate=   1.8kbits/s speed=0.0102x    frame=  255 fps=0.8 q=57.0 size=       1kB time=00:00:03.30 bitrate=   1.8kbits/s speed=0.0103x    frame=  256 fps=0.8 q=57.0 size=       1kB time=00:00:03.32 bitrate=   1.8kbits/s speed=0.0101x    frame=  257 fps=0.8 q=57.0 size=       1kB time=00:00:03.34 bitrate=   1.8kbits/s speed=0.0102x    frame=  261 fps=0.8 q=57.0 size=       1kB time=00:00:03.42 bitrate=   1.7kbits/s speed=0.0102x    frame=  262 fps=0.8 q=57.0 size=       1kB time=00:00:03.44 bitrate=   1.7kbits/s speed=0.0102x    frame=  263 fps=0.8 q=57.0 size=       1kB time=00:00:03.46 bitrate=   1.7kbits/s speed=0.0102x    frame=  265 fps=0.8 q=57.0 size=       1kB time=00:00:03.50 bitrate=   1.7kbits/s speed=0.0103x    frame=  266 fps=0.8 q=57.0 size=       1kB time=00:00:03.52 bitrate=   1.7kbits/s speed=0.0102x    frame=  267 fps=0.8 q=57.0 size=       1kB time=00:00:03.54 bitrate=   1.7kbits/s speed=0.0102x    frame=  268 fps=0.8 q=57.0 size=       1kB time=00:00:03.56 bitrate=   1.7kbits/s speed=0.0102x    frame=  271 fps=0.8 q=57.0 size=       1kB time=00:00:03.62 bitrate=   1.6kbits/s speed=0.0102x    frame=  272 fps=0.8 q=57.0 size=       1kB time=00:00:03.64 bitrate=   1.6kbits/s speed=0.0102x    frame=  273 fps=0.8 q=57.0 size=       1kB time=00:00:03.66 bitrate=   1.6kbits/s speed=0.0103x    frame=  274 fps=0.8 q=57.0 size=       1kB time=00:00:03.68 bitrate=   1.6kbits/s speed=0.0103x    frame=  275 fps=0.8 q=57.0 size=       1kB time=00:00:03.70 bitrate=   1.6kbits/s speed=0.0103x    frame=  276 fps=0.8 q=57.0 size=       1kB time=00:00:03.72 bitrate=   1.6kbits/s speed=0.0102x    frame=  277 fps=0.8 q=57.0 size=       1kB time=00:00:03.74 bitrate=   1.6kbits/s speed=0.0102x    frame=  278 fps=0.8 q=57.0 size=       1kB time=00:00:03.76 bitrate=   1.6kbits/s speed=0.0103x    frame=  280 fps=0.8 q=57.0 size=       1kB time=00:00:03.80 bitrate=   1.5kbits/s speed=0.0102x    frame=  281 fps=0.8 q=57.0 size=       1kB time=00:00:03.82 bitrate=   1.5kbits/s speed=0.0102x    frame=  282 fps=0.8 q=57.0 size=       1kB time=00:00:03.84 bitrate=   1.5kbits/s speed=0.0103x    frame=  285 fps=0.7 q=57.0 size=       1kB time=00:00:03.90 bitrate=   1.5kbits/s speed=0.0102x    frame=  286 fps=0.7 q=57.0 size=       1kB time=00:00:03.92 bitrate=   1.5kbits/s speed=0.0102x    frame=  287 fps=0.7 q=57.0 size=       1kB time=00:00:03.94 bitrate=   1.5kbits/s speed=0.0102x    frame=  290 fps=0.7 q=57.0 size=       1kB time=00:00:04.00 bitrate=   1.5kbits/s speed=0.0103x    frame=  291 fps=0.7 q=57.0 size=       1kB time=00:00:04.02 bitrate=   1.5kbits/s speed=0.0102x    frame=  292 fps=0.7 q=57.0 size=       1kB time=00:00:04.04 bitrate=   1.5kbits/s speed=0.0103x    frame=  294 fps=0.7 q=57.0 size=       1kB time=00:00:04.08 bitrate=   1.4kbits/s speed=0.0102x    frame=  295 fps=0.7 q=57.0 size=       1kB time=00:00:04.10 bitrate=   1.4kbits/s speed=0.0102x    frame=  296 fps=0.7 q=57.0 size=       1kB time=00:00:04.12 bitrate=   1.4kbits/s speed=0.0103x    frame=  299 fps=0.7 q=57.0 size=       1kB time=00:00:04.18 bitrate=   1.4kbits/s speed=0.0103x    frame=  300 fps=0.7 q=57.0 size=       1kB time=00:00:04.20 bitrate=   1.4kbits/s speed=0.0102x    frame=  301 fps=0.7 q=57.0 size=       1kB time=00:00:04.22 bitrate=   1.4kbits/s speed=0.0103x    frame=  302 fps=0.7 q=57.0 size=       1kB time=00:00:04.24 bitrate=   1.4kbits/s speed=0.0103x    frame=  304 fps=0.7 q=57.0 size=       1kB time=00:00:04.28 bitrate=   1.4kbits/s speed=0.0103x    frame=  305 fps=0.7 q=57.0 size=       1kB time=00:00:04.30 bitrate=   1.4kbits/s speed=0.0103x    frame=  306 fps=0.7 q=57.0 size=       1kB time=00:00:04.32 bitrate=   1.4kbits/s speed=0.0103x    frame=  307 fps=0.7 q=57.0 size=       1kB time=00:00:04.34 bitrate=   1.4kbits/s speed=0.0103x    frame=  308 fps=0.7 q=57.0 size=       1kB time=00:00:04.36 bitrate=   1.4kbits/s speed=0.0102x    frame=  309 fps=0.7 q=57.0 size=       1kB time=00:00:04.38 bitrate=   1.3kbits/s speed=0.0103x    frame=  310 fps=0.7 q=57.0 size=       1kB time=00:00:04.40 bitrate=   1.3kbits/s speed=0.0103x    frame=  313 fps=0.7 q=57.0 size=       1kB time=00:00:04.46 bitrate=   1.3kbits/s speed=0.0103x    frame=  314 fps=0.7 q=57.0 size=       1kB time=00:00:04.48 bitrate=   1.3kbits/s speed=0.0102x    frame=  315 fps=0.7 q=57.0 size=       1kB time=00:00:04.50 bitrate=   1.3kbits/s speed=0.0103x    frame=  318 fps=0.7 q=57.0 size=       1kB time=00:00:04.56 bitrate=   1.3kbits/s speed=0.0102x    frame=  319 fps=0.7 q=57.0 size=       1kB time=00:00:04.58 bitrate=   1.3kbits/s speed=0.0102x    frame=  320 fps=0.7 q=57.0 size=       1kB time=00:00:04.60 bitrate=   1.3kbits/s speed=0.0103x    frame=  321 fps=0.7 q=57.0 size=       1kB time=00:00:04.62 bitrate=   1.3kbits/s speed=0.0103x    frame=  323 fps=0.7 q=57.0 size=       1kB time=00:00:04.66 bitrate=   1.3kbits/s speed=0.0102x    frame=  324 fps=0.7 q=57.0 size=       1kB time=00:00:04.68 bitrate=   1.3kbits/s speed=0.0103x    frame=  325 fps=0.7 q=57.0 size=       1kB time=00:00:04.70 bitrate=   1.3kbits/s speed=0.0103x    frame=  327 fps=0.7 q=57.0 size=       1kB time=00:00:04.74 bitrate=   1.2kbits/s speed=0.0103x    frame=  328 fps=0.7 q=57.0 size=       1kB time=00:00:04.76 bitrate=   1.2kbits/s speed=0.0102x    frame=  329 fps=0.7 q=57.0 size=       1kB time=00:00:04.78 bitrate=   1.2kbits/s speed=0.0102x    frame=  330 fps=0.7 q=57.0 size=       1kB time=00:00:04.80 bitrate=   1.2kbits/s speed=0.0103x    frame=  331 fps=0.7 q=57.0 size=       1kB time=00:00:04.82 bitrate=   1.2kbits/s speed=0.0103x    frame=  333 fps=0.7 q=54.0 size=       1kB time=00:00:04.86 bitrate=   1.2kbits/s speed=0.0103x    frame=  334 fps=0.7 q=58.0 size=       1kB time=00:00:04.88 bitrate=   1.2kbits/s speed=0.0102x    frame=  335 fps=0.7 q=58.0 size=       1kB time=00:00:04.90 bitrate=   1.2kbits/s speed=0.0103x    frame=  337 fps=0.7 q=58.0 size=       1kB time=00:00:04.94 bitrate=   1.2kbits/s speed=0.0103x    frame=  338 fps=0.7 q=57.0 size=    1871kB time=00:00:04.96 bitrate=3090.1kbits/s speed=0.0103x    frame=  343 fps=0.7 q=58.0 size=    1871kB time=00:00:05.06 bitrate=3029.0kbits/s speed=0.0105x    frame=  344 fps=0.7 q=58.0 size=    1871kB time=00:00:05.08 bitrate=3017.1kbits/s speed=0.0105x    frame=  345 fps=0.7 q=58.0 size=    1871kB time=00:00:05.10 bitrate=3005.2kbits/s speed=0.0105x    frame=  346 fps=0.7 q=58.0 size=    1871kB time=00:00:05.12 bitrate=2993.5kbits/s speed=0.0106x    frame=  349 fps=0.7 q=58.0 size=    1871kB time=00:00:05.18 bitrate=2958.8kbits/s speed=0.0107x    frame=  350 fps=0.7 q=58.0 size=    1871kB time=00:00:05.20 bitrate=2947.5kbits/s speed=0.0106x    frame=  351 fps=0.7 q=58.0 size=    1871kB time=00:00:05.22 bitrate=2936.2kbits/s speed=0.0106x    frame=  352 fps=0.7 q=58.0 size=    1871kB time=00:00:05.24 bitrate=2925.0kbits/s speed=0.0107x    frame=  354 fps=0.7 q=58.0 size=    1871kB time=00:00:05.28 bitrate=2902.8kbits/s speed=0.0107x    frame=  355 fps=0.7 q=58.0 size=    1871kB time=00:00:05.30 bitrate=2891.9kbits/s speed=0.0107x    frame=  356 fps=0.7 q=58.0 size=    1871kB time=00:00:05.32 bitrate=2881.0kbits/s speed=0.0107x    frame=  357 fps=0.7 q=58.0 size=    1871kB time=00:00:05.34 bitrate=2870.2kbits/s speed=0.0107x    frame=  358 fps=0.7 q=58.0 size=    1871kB time=00:00:05.36 bitrate=2859.5kbits/s speed=0.0107x    frame=  359 fps=0.7 q=58.0 size=    1871kB time=00:00:05.38 bitrate=2848.9kbits/s speed=0.0107x    frame=  360 fps=0.7 q=58.0 size=    1871kB time=00:00:05.40 bitrate=2838.3kbits/s speed=0.0107x    frame=  362 fps=0.7 q=58.0 size=    1871kB time=00:00:05.44 bitrate=2817.5kbits/s speed=0.0108x    frame=  363 fps=0.7 q=58.0 size=    1871kB time=00:00:05.46 bitrate=2807.1kbits/s speed=0.0108x    frame=  364 fps=0.7 q=58.0 size=    1871kB time=00:00:05.48 bitrate=2796.9kbits/s speed=0.0107x    frame=  365 fps=0.7 q=58.0 size=    1871kB time=00:00:05.50 bitrate=2786.7kbits/s speed=0.0108x    frame=  368 fps=0.7 q=58.0 size=    1871kB time=00:00:05.56 bitrate=2756.7kbits/s speed=0.0107x    frame=  369 fps=0.7 q=58.0 size=    1871kB time=00:00:05.58 bitrate=2746.8kbits/s speed=0.0107x    frame=  370 fps=0.7 q=58.0 size=    1871kB time=00:00:05.60 bitrate=2737.0kbits/s speed=0.0107x    frame=  371 fps=0.7 q=58.0 size=    1871kB time=00:00:05.62 bitrate=2727.2kbits/s speed=0.0108x    frame=  372 fps=0.7 q=58.0 size=    1871kB time=00:00:05.64 bitrate=2717.6kbits/s speed=0.0108x    frame=  373 fps=0.7 q=58.0 size=    1871kB time=00:00:05.66 bitrate=2708.0kbits/s speed=0.0107x    frame=  374 fps=0.7 q=58.0 size=    1871kB time=00:00:05.68 bitrate=2698.4kbits/s speed=0.0107x    frame=  375 fps=0.7 q=58.0 size=    1871kB time=00:00:05.70 bitrate=2689.0kbits/s speed=0.0107x    frame=  377 fps=0.7 q=58.0 size=    1871kB time=00:00:05.74 bitrate=2670.2kbits/s speed=0.0108x    frame=  378 fps=0.7 q=58.0 size=    1871kB time=00:00:05.76 bitrate=2661.0kbits/s speed=0.0107x    frame=  379 fps=0.7 q=58.0 size=    1871kB time=00:00:05.78 bitrate=2651.7kbits/s speed=0.0107x    frame=  380 fps=0.7 q=58.0 size=    1871kB time=00:00:05.80 bitrate=2642.6kbits/s speed=0.0108x    frame=  381 fps=0.7 q=58.0 size=    1871kB time=00:00:05.82 bitrate=2633.5kbits/s speed=0.0108x    frame=  382 fps=0.7 q=58.0 size=    1871kB time=00:00:05.84 bitrate=2624.5kbits/s speed=0.0107x    frame=  383 fps=0.7 q=58.0 size=    1871kB time=00:00:05.86 bitrate=2615.6kbits/s speed=0.0107x    frame=  384 fps=0.7 q=58.0 size=    1871kB time=00:00:05.88 bitrate=2606.7kbits/s speed=0.0107x    frame=  386 fps=0.7 q=58.0 size=    1871kB time=00:00:05.92 bitrate=2589.0kbits/s speed=0.0108x    frame=  387 fps=0.7 q=58.0 size=    1871kB time=00:00:05.94 bitrate=2580.3kbits/s speed=0.0107x    frame=  388 fps=0.7 q=58.0 size=    1871kB time=00:00:05.96 bitrate=2571.7kbits/s speed=0.0107x    frame=  389 fps=0.7 q=58.0 size=    1871kB time=00:00:05.98 bitrate=2563.1kbits/s speed=0.0107x    frame=  391 fps=0.7 q=58.0 size=    1871kB time=00:00:06.02 bitrate=2546.0kbits/s speed=0.0107x    frame=  392 fps=0.7 q=58.0 size=    1871kB time=00:00:06.04 bitrate=2537.6kbits/s speed=0.0107x    frame=  393 fps=0.7 q=58.0 size=    1871kB time=00:00:06.06 bitrate=2529.2kbits/s speed=0.0107x    frame=  394 fps=0.7 q=58.0 size=    1871kB time=00:00:06.08 bitrate=2520.9kbits/s speed=0.0107x    frame=  395 fps=0.7 q=58.0 size=    1871kB time=00:00:06.10 bitrate=2512.7kbits/s speed=0.0107x    frame=  396 fps=0.7 q=58.0 size=    1871kB time=00:00:06.12 bitrate=2504.5kbits/s speed=0.0107x    frame=  397 fps=0.7 q=58.0 size=    1871kB time=00:00:06.14 bitrate=2496.3kbits/s speed=0.0107x    frame=  398 fps=0.7 q=58.0 size=    1871kB time=00:00:06.16 bitrate=2488.2kbits/s speed=0.0107x    frame=  399 fps=0.7 q=58.0 size=    1871kB time=00:00:06.18 bitrate=2480.1kbits/s speed=0.0107x    frame=  401 fps=0.7 q=58.0 size=    1871kB time=00:00:06.22 bitrate=2464.2kbits/s speed=0.0108x    frame=  402 fps=0.7 q=58.0 size=    1871kB time=00:00:06.24 bitrate=2456.3kbits/s speed=0.0106x    frame=  403 fps=0.7 q=58.0 size=    1871kB time=00:00:06.26 bitrate=2448.5kbits/s speed=0.0107x    frame=  404 fps=0.7 q=58.0 size=    1871kB time=00:00:06.28 bitrate=2440.7kbits/s speed=0.0107x    frame=  407 fps=0.7 q=58.0 size=    1871kB time=00:00:06.34 bitrate=2417.6kbits/s speed=0.0107x    frame=  408 fps=0.7 q=58.0 size=    1871kB time=00:00:06.36 bitrate=2410.0kbits/s speed=0.0106x    frame=  409 fps=0.7 q=58.0 size=    1871kB time=00:00:06.38 bitrate=2402.4kbits/s speed=0.0106x    frame=  411 fps=0.7 q=58.0 size=    1871kB time=00:00:06.42 bitrate=2387.4kbits/s speed=0.0107x    frame=  412 fps=0.7 q=58.0 size=    1871kB time=00:00:06.44 bitrate=2380.0kbits/s speed=0.0107x    frame=  413 fps=0.7 q=58.0 size=    1871kB time=00:00:06.46 bitrate=2372.7kbits/s speed=0.0107x    frame=  414 fps=0.7 q=58.0 size=    1871kB time=00:00:06.48 bitrate=2365.3kbits/s speed=0.0106x    frame=  415 fps=0.7 q=58.0 size=    1871kB time=00:00:06.50 bitrate=2358.1kbits/s speed=0.0106x    frame=  416 fps=0.7 q=58.0 size=    1871kB time=00:00:06.52 bitrate=2350.8kbits/s speed=0.0107x    frame=  417 fps=0.7 q=58.0 size=    1871kB time=00:00:06.54 bitrate=2343.6kbits/s speed=0.0106x    frame=  418 fps=0.7 q=58.0 size=    1871kB time=00:00:06.56 bitrate=2336.5kbits/s speed=0.0106x    frame=  419 fps=0.7 q=58.0 size=    1871kB time=00:00:06.58 bitrate=2329.4kbits/s speed=0.0107x    frame=  421 fps=0.7 q=58.0 size=    1871kB time=00:00:06.62 bitrate=2315.3kbits/s speed=0.0106x    frame=  422 fps=0.7 q=58.0 size=    1871kB time=00:00:06.64 bitrate=2308.3kbits/s speed=0.0106x    frame=  423 fps=0.7 q=58.0 size=    1871kB time=00:00:06.66 bitrate=2301.4kbits/s speed=0.0106x    frame=  426 fps=0.7 q=58.0 size=    1871kB time=00:00:06.72 bitrate=2280.9kbits/s speed=0.0106x    frame=  427 fps=0.7 q=58.0 size=    1871kB time=00:00:06.74 bitrate=2274.1kbits/s speed=0.0106x    frame=  428 fps=0.7 q=58.0 size=    1871kB time=00:00:06.76 bitrate=2267.4kbits/s speed=0.0106x    frame=  430 fps=0.7 q=58.0 size=    1871kB time=00:00:06.80 bitrate=2254.0kbits/s speed=0.0106x    frame=  431 fps=0.7 q=58.0 size=    1871kB time=00:00:06.82 bitrate=2247.4kbits/s speed=0.0106x    frame=  432 fps=0.7 q=58.0 size=    1871kB time=00:00:06.84 bitrate=2240.9kbits/s speed=0.0106x    frame=  434 fps=0.7 q=58.0 size=    1871kB time=00:00:06.88 bitrate=2227.8kbits/s speed=0.0107x    frame=  436 fps=0.7 q=58.0 size=    1871kB time=00:00:06.92 bitrate=2215.0kbits/s speed=0.0106x    frame=  437 fps=0.7 q=58.0 size=    1871kB time=00:00:06.94 bitrate=2208.6kbits/s speed=0.0106x    frame=  438 fps=0.7 q=58.0 size=    1871kB time=00:00:06.96 bitrate=2202.2kbits/s speed=0.0106x    frame=  439 fps=0.7 q=58.0 size=    1871kB time=00:00:06.98 bitrate=2195.9kbits/s speed=0.0106x    frame=  440 fps=0.7 q=58.0 size=    1871kB time=00:00:07.00 bitrate=2189.7kbits/s speed=0.0106x    frame=  441 fps=0.7 q=58.0 size=    1871kB time=00:00:07.02 bitrate=2183.4kbits/s speed=0.0106x    frame=  442 fps=0.7 q=58.0 size=    1871kB time=00:00:07.04 bitrate=2177.2kbits/s speed=0.0106x    frame=  443 fps=0.7 q=58.0 size=    1871kB time=00:00:07.06 bitrate=2171.0kbits/s speed=0.0106x    frame=  445 fps=0.7 q=58.0 size=    1871kB time=00:00:07.10 bitrate=2158.8kbits/s speed=0.0106x    frame=  446 fps=0.7 q=58.0 size=    1871kB time=00:00:07.12 bitrate=2152.8kbits/s speed=0.0106x    frame=  447 fps=0.7 q=58.0 size=    1871kB time=00:00:07.14 bitrate=2146.7kbits/s speed=0.0106x    frame=  449 fps=0.7 q=58.0 size=    1871kB time=00:00:07.18 bitrate=2134.8kbits/s speed=0.0106x    frame=  450 fps=0.7 q=58.0 size=    1871kB time=00:00:07.20 bitrate=2128.8kbits/s speed=0.0106x    frame=  451 fps=0.7 q=58.0 size=    1871kB time=00:00:07.22 bitrate=2122.9kbits/s speed=0.0106x    frame=  453 fps=0.7 q=58.0 size=    1871kB time=00:00:07.26 bitrate=2111.2kbits/s speed=0.0107x    frame=  455 fps=0.7 q=58.0 size=    1871kB time=00:00:07.30 bitrate=2099.7kbits/s speed=0.0106x    frame=  456 fps=0.7 q=58.0 size=    1871kB time=00:00:07.32 bitrate=2093.9kbits/s speed=0.0106x    frame=  457 fps=0.7 q=58.0 size=    1871kB time=00:00:07.34 bitrate=2088.2kbits/s speed=0.0106x    frame=  458 fps=0.7 q=58.0 size=    1871kB time=00:00:07.36 bitrate=2082.6kbits/s speed=0.0106x    frame=  459 fps=0.7 q=58.0 size=    1871kB time=00:00:07.38 bitrate=2076.9kbits/s speed=0.0106x    frame=  460 fps=0.7 q=58.0 size=    1871kB time=00:00:07.40 bitrate=2071.3kbits/s speed=0.0106x    frame=  461 fps=0.7 q=58.0 size=    1871kB time=00:00:07.42 bitrate=2065.7kbits/s speed=0.0106x    frame=  462 fps=0.7 q=58.0 size=    1871kB time=00:00:07.44 bitrate=2060.2kbits/s speed=0.0106x    frame=  463 fps=0.7 q=58.0 size=    1871kB time=00:00:07.46 bitrate=2054.7kbits/s speed=0.0106x    frame=  464 fps=0.7 q=58.0 size=    1871kB time=00:00:07.48 bitrate=2049.2kbits/s speed=0.0106x    frame=  465 fps=0.7 q=58.0 size=    1871kB time=00:00:07.50 bitrate=2043.7kbits/s speed=0.0106x    frame=  466 fps=0.7 q=58.0 size=    1871kB time=00:00:07.52 bitrate=2038.3kbits/s speed=0.0106x    frame=  467 fps=0.7 q=58.0 size=    1871kB time=00:00:07.54 bitrate=2032.9kbits/s speed=0.0106x    frame=  469 fps=0.7 q=58.0 size=    1871kB time=00:00:07.58 bitrate=2022.1kbits/s speed=0.0106x    frame=  470 fps=0.7 q=58.0 size=    1871kB time=00:00:07.60 bitrate=2016.8kbits/s speed=0.0106x    frame=  471 fps=0.7 q=58.0 size=    1871kB time=00:00:07.62 bitrate=2011.5kbits/s speed=0.0106x    frame=  473 fps=0.7 q=58.0 size=    1871kB time=00:00:07.66 bitrate=2001.0kbits/s speed=0.0106x    frame=  474 fps=0.7 q=58.0 size=    1871kB time=00:00:07.68 bitrate=1995.8kbits/s speed=0.0106x    frame=  475 fps=0.7 q=58.0 size=    1871kB time=00:00:07.70 bitrate=1990.6kbits/s speed=0.0106x    frame=  477 fps=0.7 q=58.0 size=    1871kB time=00:00:07.74 bitrate=1980.3kbits/s speed=0.0106x    frame=  478 fps=0.7 q=58.0 size=    1871kB time=00:00:07.76 bitrate=1975.2kbits/s speed=0.0106x    frame=  479 fps=0.7 q=58.0 size=    1871kB time=00:00:07.78 bitrate=1970.2kbits/s speed=0.0106x    frame=  480 fps=0.6 q=58.0 size=    1871kB time=00:00:07.80 bitrate=1965.1kbits/s speed=0.0105x    frame=  481 fps=0.6 q=58.0 size=    1871kB time=00:00:07.82 bitrate=1960.1kbits/s speed=0.0106x    frame=  482 fps=0.6 q=58.0 size=    1871kB time=00:00:07.84 bitrate=1955.1kbits/s speed=0.0106x    frame=  483 fps=0.6 q=58.0 size=    1871kB time=00:00:07.86 bitrate=1950.1kbits/s speed=0.0105x    frame=  484 fps=0.6 q=58.0 size=    1871kB time=00:00:07.88 bitrate=1945.2kbits/s speed=0.0105x    frame=  485 fps=0.6 q=58.0 size=    1871kB time=00:00:07.90 bitrate=1940.2kbits/s speed=0.0106x    frame=  486 fps=0.6 q=58.0 size=    1871kB time=00:00:07.92 bitrate=1935.3kbits/s speed=0.0106x    frame=  487 fps=0.6 q=58.0 size=    1871kB time=00:00:07.94 bitrate=1930.5kbits/s speed=0.0105x    frame=  488 fps=0.6 q=58.0 size=    1871kB time=00:00:07.96 bitrate=1925.6kbits/s speed=0.0106x    frame=  489 fps=0.6 q=58.0 size=    1871kB time=00:00:07.98 bitrate=1920.8kbits/s speed=0.0106x    frame=  490 fps=0.6 q=58.0 size=    1871kB time=00:00:08.00 bitrate=1916.0kbits/s speed=0.0105x    frame=  491 fps=0.6 q=58.0 size=    1871kB time=00:00:08.02 bitrate=1911.2kbits/s speed=0.0105x    frame=  492 fps=0.6 q=58.0 size=    1871kB time=00:00:08.04 bitrate=1906.4kbits/s speed=0.0105x    frame=  494 fps=0.6 q=58.0 size=    1871kB time=00:00:08.08 bitrate=1897.0kbits/s speed=0.0106x    frame=  495 fps=0.6 q=58.0 size=    1871kB time=00:00:08.10 bitrate=1892.3kbits/s speed=0.0106x    frame=  496 fps=0.6 q=58.0 size=    1871kB time=00:00:08.12 bitrate=1887.7kbits/s speed=0.0106x    frame=  497 fps=0.6 q=58.0 size=    1871kB time=00:00:08.14 bitrate=1883.0kbits/s speed=0.0106x    frame=  498 fps=0.6 q=58.0 size=    1871kB time=00:00:08.16 bitrate=1878.4kbits/s speed=0.0105x    frame=  499 fps=0.6 q=58.0 size=    1871kB time=00:00:08.18 bitrate=1873.8kbits/s speed=0.0105x    frame=  500 fps=0.6 q=58.0 size=    1871kB time=00:00:08.20 bitrate=1869.3kbits/s speed=0.0105x    frame=  500 fps=0.5 q=-1.0 Lsize=    3844kB time=00:00:09.94 bitrate=3167.3kbits/s speed=0.0106x    
video:3839kB audio:0kB subtitle:0kB other streams:0kB global headers:0kB muxing overhead: 0.112659%
bench: utime=3633.016s
bench: maxrss=4916476kB
[libx264 @ 0x44371c0] frame I:2     Avg QP:45.82  size:107448
[libx264 @ 0x44371c0] frame P:108   Avg QP:50.94  size: 19568
[libx264 @ 0x44371c0] frame B:390   Avg QP:50.91  size:  4109
[libx264 @ 0x44371c0] consecutive B-frames:  0.6%  0.4%  3.6% 32.8% 41.0% 21.6%  0.0%  0.0%  0.0%  0.0%  0.0%  0.0%  0.0%  0.0%  0.0%  0.0%  0.0%
[libx264 @ 0x44371c0] mb I  I16..4: 48.0% 46.1%  5.9%
[libx264 @ 0x44371c0] mb P  I16..4:  5.1%  0.8%  9.5%  P16..4: 19.7%  8.4%  2.0%  0.2%  0.0%    skip:54.3%
[libx264 @ 0x44371c0] mb B  I16..4:  0.1%  0.0%  0.0%  B16..8: 15.8%  0.4%  0.0%  direct: 0.0%  skip:83.7%  L0:38.3% L1:61.6% BI: 0.1%
[libx264 @ 0x44371c0] final ratefactor: 50.05
[libx264 @ 0x44371c0] 8x8 transform intra:9.8% inter:83.5%
[libx264 @ 0x44371c0] direct mvs  spatial:99.2% temporal:0.8%
[libx264 @ 0x44371c0] coded y,uvDC,uvAC intra: 4.7% 26.4% 0.9% inter: 0.0% 2.3% 0.0%
[libx264 @ 0x44371c0] i16 v,h,dc,p: 53% 12%  1% 34%
[libx264 @ 0x44371c0] i8 v,h,dc,ddl,ddr,vr,hd,vl,hu:  3%  1% 46%  9% 10%  7%  9%  7%  8%
[libx264 @ 0x44371c0] i4 v,h,dc,ddl,ddr,vr,hd,vl,hu:  1%  0% 99%  0%  0%  0%  0%  0%  0%
[libx264 @ 0x44371c0] i8c dc,h,v,p: 70% 13%  9%  8%
[libx264 @ 0x44371c0] Weighted P-Frames: Y:0.0% UV:0.0%
[libx264 @ 0x44371c0] ref P L0: 49.9%  0.1% 17.1%  6.1%  4.4%  4.8%  4.2%  1.9%  1.6%  1.7%  1.5%  1.6%  1.3%  1.5%  1.4%  0.9%
[libx264 @ 0x44371c0] ref B L0: 88.9%  2.6%  2.1%  0.9%  0.9%  0.7%  0.8%  0.4%  0.4%  0.4%  0.4%  0.4%  0.4%  0.3%  0.2%
[libx264 @ 0x44371c0] ref B L1: 98.5%  1.5%
[libx264 @ 0x44371c0] kb/s:3144.50
